<svg xmlns="http://www.w3.org/2000/svg" xmlns:xlink="http://www.w3.org/1999/xlink" xmlns:serif="http://www.serif.com/" width="100%" height="100%" viewBox="0 0 613 633" version="1.1" xml:space="preserve" style="fill-rule:evenodd;clip-rule:evenodd;stroke-linejoin:round;stroke-miterlimit:2;">
    <defs>
        <linearGradient id="shipGradientHero" x1="0%" y1="0%" x2="100%" y2="100%">
            <stop offset="0%" stop-color="#2563EB" />
            <stop offset="100%" stop-color="#8B5CF6" />
        </linearGradient>
    </defs>
    <g transform="matrix(1,0,0,1,-205.09,-186.915)">
        <path d="M395.83,758.24C435.59,757.27 455.75,788.6 489.5,788.8C526.84,789.02 542.4,754.42 589.38,759.12C628.9,763.07 644.02,803.02 689.69,781.18C717.89,767.69 724.18,755.78 760.49,759.01C770.55,759.91 801.08,771.31 809.7,776.8C822.99,785.27 816.14,805.31 801.6,804.9C790.25,804.58 772.19,789.54 756.5,788C719.56,784.37 703.47,819.76 657.46,817.04C612.06,814.36 599.78,769.99 550.34,796.82C525.49,810.3 514.66,820.1 483.46,818.04C436.6,814.95 419.71,768.49 368.71,796.19C345.74,808.67 333.74,820.36 304.52,818.98C273.66,817.52 262.09,799.02 237.22,792.28C227.78,789.73 213.39,790.89 212.92,776.5C212.25,756.07 234.14,760.65 246.79,764.71C260.33,769.05 270.6,778.14 283.02,783.48C331.02,804.12 351.31,759.32 395.84,758.23L395.83,758.24ZM784.21,631.8C795.98,639.8 818.24,642.85 812.51,662.01L795.92,711.37C807.11,715.95 819.13,716.94 816.91,732.42C815.98,738.91 809.99,744.5 803.39,744.96C794,745.62 776.7,732.48 766.22,729.28C725.18,716.76 709.43,752.49 672.37,755.87C620.42,760.6 603.96,707.37 549.33,736.83C524.67,750.13 514.66,760.51 483.47,758.04C452.41,755.58 435,729.93 408.38,727.13C360.96,722.13 344.4,771.39 286.18,757.33C269.5,753.3 260.36,744.04 245.99,738.52C234.72,734.19 212.44,736.19 212.96,719.54C213.56,700.27 238.92,706.1 250.77,709.75C273.55,716.76 285.41,732.51 312.49,729.99C316.16,729.65 330.71,726.48 331.06,722.49L205.09,404.41C207.39,387.55 217.45,388.68 231,391.5C255.46,396.59 279.44,406.09 303.87,410.88C309.87,397.54 313.41,382.2 319.53,369.04C331.11,344.16 352.37,344.28 376.88,344.89C386.12,324.52 387.77,291.35 414.48,287L515.03,286.55C526.46,261.51 534.21,234.01 545.52,209.04C551.67,195.48 559.13,184.81 576.23,187.27C585.1,188.55 636.26,211.28 644.68,216.81C651.49,221.29 655.28,227.27 656.03,235.46L656.18,328.31C656.83,330.46 688.66,349.64 693.51,352.98C701.99,358.82 708.81,361.94 709.98,373.51C710.77,381.26 708.53,417.73 710.5,420.99C721.04,429.45 737.02,435.9 746.92,444.57C752.54,449.49 754.46,456.21 755.03,463.46C756.26,479.21 753.88,496.4 755.18,512.31C764.74,522.12 781.81,523.59 783.91,539.58L784.21,631.79L784.21,631.8ZM583.5,444L410.5,444C409.57,444 406.43,440.96 407,444.99C442.54,457.06 478.09,470.12 512.68,484.82C596.88,520.62 674.18,569.84 753.99,614L753.71,548.3L583.5,444ZM568.73,571.23C560.48,572.935 556.535,581.483 557.598,589.301C558.66,597.12 564.73,604.21 576.51,603C597.73,600.81 593.35,566.15 568.73,571.23ZM512.42,565.21C512.42,554.24 503.53,545.35 492.56,545.35C481.59,545.35 472.7,554.24 472.7,565.21C472.7,576.18 481.59,585.07 492.56,585.07C503.53,585.07 512.42,576.18 512.42,565.21ZM715.73,546.23C728.915,543.505 735.968,554.28 736.289,564.576C736.61,574.873 730.2,584.69 716.46,580.05C703.35,575.62 702.72,548.93 715.73,546.23ZM428.16,544.85C428.16,533.73 419.15,524.72 408.03,524.72C396.91,524.72 387.9,533.73 387.9,544.85C387.9,555.97 396.91,564.98 408.03,564.98C419.15,564.98 428.16,555.97 428.16,544.85ZM674.75,522.23C687.325,520.24 693.83,531.51 693.778,541.868C693.725,552.225 687.115,561.67 673.46,556.03C660.06,550.5 659.31,524.67 674.75,522.23ZM630.75,497.23C645.34,494.915 651.242,507.99 650.036,519.306C648.83,530.622 640.515,540.18 626.67,530.83C616.8,524.17 616.14,499.54 630.75,497.23ZM724,466L609,389L609,422.5L724,495L724,466ZM578,374L353.5,374C351.31,374 348.72,378.46 347.81,380.31C343.17,389.78 341.03,403.01 337,413L578,413L578,374ZM606,332L606,351.5L681,401L681,384.5C681,384 679.82,381.51 679.28,380.95L606,332ZM577,319L419,319L410,345L575.5,345L577,343.5L577,319ZM627,254C612.51,249.22 598.65,242.22 584.27,237.23C578.67,235.29 572.28,231.62 567.69,237.26L552,287L591.5,287C599.54,287 618.66,304.64 627,308L627,254Z" style="fill: url(#shipGradientHero); fill-rule:nonzero;"/>
    </g>
</svg>